<svg width="46" height="46" viewBox="0 0 46 46" fill="none" xmlns="http://www.w3.org/2000/svg">
<circle cx="23" cy="23" r="23" fill="#333333"/>
<path d="M19.3 34.925C20.5 35.2875 21.7125 35.5 23 35.5C26.3152 35.5 29.4946 34.183 31.8388 31.8388C34.183 29.4946 35.5 26.3152 35.5 23C35.5 21.3585 35.1767 19.733 34.5485 18.2165C33.9203 16.6999 32.9996 15.3219 31.8388 14.1612C30.6781 13.0004 29.3001 12.0797 27.7835 11.4515C26.267 10.8233 24.6415 10.5 23 10.5C21.3585 10.5 19.733 10.8233 18.2165 11.4515C16.6999 12.0797 15.3219 13.0004 14.1612 14.1612C11.817 16.5054 10.5 19.6848 10.5 23C10.5 28.3125 13.8375 32.875 18.55 34.675C18.4375 33.7 18.325 32.0875 18.55 30.975L19.9875 24.8C19.9875 24.8 19.625 24.075 19.625 22.925C19.625 21.2 20.7 19.9125 21.925 19.9125C23 19.9125 23.5 20.7 23.5 21.7125C23.5 22.7875 22.7875 24.325 22.425 25.8C22.2125 27.025 23.075 28.1 24.325 28.1C26.55 28.1 28.275 25.725 28.275 22.375C28.275 19.375 26.125 17.325 23.0375 17.325C19.5125 17.325 17.4375 19.95 17.4375 22.7125C17.4375 23.7875 17.7875 24.875 18.3625 25.5875C18.475 25.6625 18.475 25.7625 18.4375 25.95L18.075 27.3125C18.075 27.525 17.9375 27.6 17.725 27.45C16.125 26.75 15.2 24.475 15.2 22.6375C15.2 18.6875 18 15.1 23.4 15.1C27.7 15.1 31.05 18.1875 31.05 22.2875C31.05 26.5875 28.3875 30.0375 24.575 30.0375C23.3625 30.0375 22.175 29.3875 21.75 28.625L20.9125 31.5875C20.625 32.6625 19.8375 34.1 19.3 34.9625V34.925Z" fill="#F9F5EE"/>
</svg>
