<svg width="46" height="46" viewBox="0 0 46 46" fill="none" xmlns="http://www.w3.org/2000/svg">
<circle cx="23" cy="23" r="23" fill="#333333"/>
<path d="M17.75 10.5H28.25C32.25 10.5 35.5 13.75 35.5 17.75V28.25C35.5 30.1728 34.7362 32.0169 33.3765 33.3765C32.0169 34.7362 30.1728 35.5 28.25 35.5H17.75C13.75 35.5 10.5 32.25 10.5 28.25V17.75C10.5 15.8272 11.2638 13.9831 12.6235 12.6235C13.9831 11.2638 15.8272 10.5 17.75 10.5ZM17.5 13C16.3065 13 15.1619 13.4741 14.318 14.318C13.4741 15.1619 13 16.3065 13 17.5V28.5C13 30.9875 15.0125 33 17.5 33H28.5C29.6935 33 30.8381 32.5259 31.682 31.682C32.5259 30.8381 33 29.6935 33 28.5V17.5C33 15.0125 30.9875 13 28.5 13H17.5ZM29.5625 14.875C29.9769 14.875 30.3743 15.0396 30.6674 15.3326C30.9604 15.6257 31.125 16.0231 31.125 16.4375C31.125 16.8519 30.9604 17.2493 30.6674 17.5424C30.3743 17.8354 29.9769 18 29.5625 18C29.1481 18 28.7507 17.8354 28.4576 17.5424C28.1646 17.2493 28 16.8519 28 16.4375C28 16.0231 28.1646 15.6257 28.4576 15.3326C28.7507 15.0396 29.1481 14.875 29.5625 14.875ZM23 16.75C24.6576 16.75 26.2473 17.4085 27.4194 18.5806C28.5915 19.7527 29.25 21.3424 29.25 23C29.25 24.6576 28.5915 26.2473 27.4194 27.4194C26.2473 28.5915 24.6576 29.25 23 29.25C21.3424 29.25 19.7527 28.5915 18.5806 27.4194C17.4085 26.2473 16.75 24.6576 16.75 23C16.75 21.3424 17.4085 19.7527 18.5806 18.5806C19.7527 17.4085 21.3424 16.75 23 16.75ZM23 19.25C22.0054 19.25 21.0516 19.6451 20.3483 20.3483C19.6451 21.0516 19.25 22.0054 19.25 23C19.25 23.9946 19.6451 24.9484 20.3483 25.6517C21.0516 26.3549 22.0054 26.75 23 26.75C23.9946 26.75 24.9484 26.3549 25.6517 25.6517C26.3549 24.9484 26.75 23.9946 26.75 23C26.75 22.0054 26.3549 21.0516 25.6517 20.3483C24.9484 19.6451 23.9946 19.25 23 19.25Z" fill="#F9F5EE"/>
</svg>
