<svg width="46" height="46" viewBox="0 0 46 46" fill="none" xmlns="http://www.w3.org/2000/svg">
<circle cx="23" cy="23" r="23" fill="#333333"/>
<path d="M23 10.55C16.125 10.55 10.5 16.1625 10.5 23.075C10.5 29.325 15.075 34.5125 21.05 35.45V26.7H17.875V23.075H21.05V20.3125C21.05 17.175 22.9125 15.45 25.775 15.45C27.1375 15.45 28.5625 15.6875 28.5625 15.6875V18.775H26.9875C25.4375 18.775 24.95 19.7375 24.95 20.725V23.075H28.425L27.8625 26.7H24.95V35.45C27.8956 34.9848 30.5778 33.4819 32.5124 31.2126C34.4471 28.9432 35.5067 26.057 35.5 23.075C35.5 16.1625 29.875 10.55 23 10.55Z" fill="#F9F5EE"/>
</svg>
