<svg width="32" height="32" viewBox="0 0 32 32" fill="none" xmlns="http://www.w3.org/2000/svg">
<path d="M26.6667 10.6666L16 17.3333L5.33333 10.6666V7.99992L16 14.6666L26.6667 7.99992M26.6667 5.33325H5.33333C3.85333 5.33325 2.66666 6.51992 2.66666 7.99992V23.9999C2.66666 24.7072 2.94762 25.3854 3.44771 25.8855C3.94781 26.3856 4.62609 26.6666 5.33333 26.6666H26.6667C27.3739 26.6666 28.0522 26.3856 28.5523 25.8855C29.0524 25.3854 29.3333 24.7072 29.3333 23.9999V7.99992C29.3333 7.29267 29.0524 6.6144 28.5523 6.1143C28.0522 5.6142 27.3739 5.33325 26.6667 5.33325Z" fill="#333333"/>
</svg>
