<svg width="32" height="32" viewBox="0 0 32 32" fill="none" xmlns="http://www.w3.org/2000/svg">
<circle cx="16" cy="16" r="16" fill="#F9F5EE"/>
<path d="M16 7.33936C11.2174 7.33936 7.30435 11.2437 7.30435 16.0524C7.30435 20.4002 10.487 24.0089 14.6435 24.6611V18.5741H12.4348V16.0524H14.6435V14.1307C14.6435 11.9481 15.9391 10.7481 17.9304 10.7481C18.8783 10.7481 19.8696 10.9133 19.8696 10.9133V13.0611H18.7739C17.6957 13.0611 17.3565 13.7307 17.3565 14.4176V16.0524H19.7739L19.3826 18.5741H17.3565V24.6611C19.4056 24.3375 21.2715 23.292 22.6173 21.7133C23.9632 20.1347 24.7003 18.1269 24.6957 16.0524C24.6957 11.2437 20.7826 7.33936 16 7.33936Z" fill="#333333"/>
</svg>
