<svg width="32" height="32" viewBox="0 0 32 32" fill="none" xmlns="http://www.w3.org/2000/svg">
<circle cx="16" cy="16" r="16" fill="#F9F5EE"/>
<path d="M12.3478 7.30469H19.6522C22.4348 7.30469 24.6957 9.56556 24.6957 12.3482V19.6525C24.6957 20.9901 24.1643 22.273 23.2185 23.2188C22.2726 24.1646 20.9898 24.696 19.6522 24.696H12.3478C9.56522 24.696 7.30435 22.4351 7.30435 19.6525V12.3482C7.30435 11.0106 7.83572 9.72772 8.78155 8.78189C9.72739 7.83605 11.0102 7.30469 12.3478 7.30469ZM12.1739 9.04382C11.3437 9.04382 10.5474 9.37363 9.96037 9.9607C9.37329 10.5478 9.04348 11.344 9.04348 12.1743V19.8264C9.04348 21.5569 10.4435 22.9569 12.1739 22.9569H19.8261C20.6563 22.9569 21.4526 22.627 22.0396 22.04C22.6267 21.4529 22.9565 20.6567 22.9565 19.8264V12.1743C22.9565 10.4438 21.5565 9.04382 19.8261 9.04382H12.1739ZM20.5652 10.3482C20.8535 10.3482 21.13 10.4627 21.3338 10.6665C21.5377 10.8704 21.6522 11.1468 21.6522 11.4351C21.6522 11.7234 21.5377 11.9999 21.3338 12.2037C21.13 12.4076 20.8535 12.5221 20.5652 12.5221C20.2769 12.5221 20.0005 12.4076 19.7966 12.2037C19.5928 11.9999 19.4783 11.7234 19.4783 11.4351C19.4783 11.1468 19.5928 10.8704 19.7966 10.6665C20.0005 10.4627 20.2769 10.3482 20.5652 10.3482ZM16 11.6525C17.1531 11.6525 18.259 12.1106 19.0744 12.926C19.8898 13.7413 20.3478 14.8472 20.3478 16.0003C20.3478 17.1535 19.8898 18.2593 19.0744 19.0747C18.259 19.8901 17.1531 20.3482 16 20.3482C14.8469 20.3482 13.741 19.8901 12.9256 19.0747C12.1103 18.2593 11.6522 17.1535 11.6522 16.0003C11.6522 14.8472 12.1103 13.7413 12.9256 12.926C13.741 12.1106 14.8469 11.6525 16 11.6525ZM16 13.3916C15.3081 13.3916 14.6446 13.6665 14.1554 14.1557C13.6662 14.6449 13.3913 15.3085 13.3913 16.0003C13.3913 16.6922 13.6662 17.3557 14.1554 17.845C14.6446 18.3342 15.3081 18.609 16 18.609C16.6919 18.609 17.3554 18.3342 17.8446 17.845C18.3339 17.3557 18.6087 16.6922 18.6087 16.0003C18.6087 15.3085 18.3339 14.6449 17.8446 14.1557C17.3554 13.6665 16.6919 13.3916 16 13.3916Z" fill="#333333"/>
</svg>
