<svg width="32" height="32" viewBox="0 0 32 32" fill="none" xmlns="http://www.w3.org/2000/svg">
<circle cx="16" cy="16" r="16" fill="#F9F5EE"/>
<path d="M13.4261 24.296C14.2609 24.5482 15.1044 24.696 16 24.696C18.3063 24.696 20.518 23.7798 22.1488 22.1491C23.7795 20.5183 24.6957 18.3066 24.6957 16.0003C24.6957 14.8584 24.4708 13.7277 24.0338 12.6727C23.5968 11.6177 22.9563 10.6591 22.1488 9.85158C21.3413 9.04412 20.3827 8.4036 19.3277 7.9666C18.2727 7.52961 17.142 7.30469 16 7.30469C14.8581 7.30469 13.7274 7.52961 12.6724 7.9666C11.6173 8.4036 10.6587 9.04412 9.85128 9.85158C8.22053 11.4823 7.30438 13.6941 7.30438 16.0003C7.30438 19.696 9.62612 22.8699 12.9044 24.1221C12.8261 23.4438 12.7479 22.3221 12.9044 21.5482L13.9044 17.2525C13.9044 17.2525 13.6522 16.7482 13.6522 15.9482C13.6522 14.7482 14.4 13.8525 15.2522 13.8525C16 13.8525 16.3479 14.4003 16.3479 15.1047C16.3479 15.8525 15.8522 16.9221 15.6 17.9482C15.4522 18.8003 16.0522 19.5482 16.9218 19.5482C18.4696 19.5482 19.6696 17.896 19.6696 15.5656C19.6696 13.4786 18.1739 12.0525 16.0261 12.0525C13.5739 12.0525 12.1305 13.8786 12.1305 15.8003C12.1305 16.5482 12.3739 17.3047 12.7739 17.8003C12.8522 17.8525 12.8522 17.9221 12.8261 18.0525L12.5739 19.0003C12.5739 19.1482 12.4783 19.2003 12.3305 19.096C11.2174 18.609 10.5739 17.0264 10.5739 15.7482C10.5739 13.0003 12.5218 10.5047 16.2783 10.5047C19.2696 10.5047 21.6 12.6525 21.6 15.5047C21.6 18.496 19.7479 20.896 17.0957 20.896C16.2522 20.896 15.4261 20.4438 15.1305 19.9134L14.5479 21.9743C14.3479 22.7221 13.8 23.7221 13.4261 24.3221V24.296Z" fill="#333333"/>
</svg>
