<svg width="21" height="21" viewBox="0 0 21 21" fill="none" xmlns="http://www.w3.org/2000/svg">
<path d="M6.78274 1.73914H14.0871C16.8697 1.73914 19.1306 4.00001 19.1306 6.78261V14.087C19.1306 15.4246 18.5992 16.7074 17.6534 17.6532C16.7075 18.5991 15.4247 19.1304 14.0871 19.1304H6.78274C4.00013 19.1304 1.73926 16.8696 1.73926 14.087V6.78261C1.73926 5.445 2.27062 4.16217 3.21646 3.21634C4.16229 2.2705 5.44512 1.73914 6.78274 1.73914ZM6.60882 3.47827C5.77858 3.47827 4.98234 3.80808 4.39527 4.39515C3.8082 4.98222 3.47839 5.77846 3.47839 6.6087V14.2609C3.47839 15.9913 4.87839 17.3913 6.60882 17.3913H14.261C15.0912 17.3913 15.8875 17.0615 16.4745 16.4744C17.0616 15.8874 17.3914 15.0911 17.3914 14.2609V6.6087C17.3914 4.87827 15.9914 3.47827 14.261 3.47827H6.60882ZM15.0001 4.78261C15.2884 4.78261 15.5649 4.89713 15.7687 5.10098C15.9726 5.30482 16.0871 5.58129 16.0871 5.86957C16.0871 6.15785 15.9726 6.43432 15.7687 6.63816C15.5649 6.84201 15.2884 6.95653 15.0001 6.95653C14.7118 6.95653 14.4354 6.84201 14.2315 6.63816C14.0277 6.43432 13.9132 6.15785 13.9132 5.86957C13.9132 5.58129 14.0277 5.30482 14.2315 5.10098C14.4354 4.89713 14.7118 4.78261 15.0001 4.78261ZM10.4349 6.08696C11.588 6.08696 12.6939 6.54503 13.5093 7.36041C14.3247 8.17579 14.7827 9.28167 14.7827 10.4348C14.7827 11.5879 14.3247 12.6938 13.5093 13.5092C12.6939 14.3245 11.588 14.7826 10.4349 14.7826C9.28179 14.7826 8.17591 14.3245 7.36053 13.5092C6.54516 12.6938 6.08708 11.5879 6.08708 10.4348C6.08708 9.28167 6.54516 8.17579 7.36053 7.36041C8.17591 6.54503 9.28179 6.08696 10.4349 6.08696ZM10.4349 7.82609C9.74304 7.82609 9.07951 8.10094 8.59028 8.59016C8.10106 9.07939 7.82621 9.74292 7.82621 10.4348C7.82621 11.1267 8.10106 11.7902 8.59028 12.2794C9.07951 12.7686 9.74304 13.0435 10.4349 13.0435C11.1268 13.0435 11.7903 12.7686 12.2795 12.2794C12.7688 11.7902 13.0436 11.1267 13.0436 10.4348C13.0436 9.74292 12.7688 9.07939 12.2795 8.59016C11.7903 8.10094 11.1268 7.82609 10.4349 7.82609Z" fill="#333333"/>
</svg>
