<svg width="224" height="85" viewBox="0 0 224 85" fill="none" xmlns="http://www.w3.org/2000/svg">
<path d="M111.999 83.1959C134.474 83.1959 152.693 64.9763 152.693 42.5012C152.693 20.0262 134.474 1.80652 111.999 1.80652C89.5236 1.80652 71.304 20.0262 71.304 42.5012C71.304 64.9763 89.5236 83.1959 111.999 83.1959Z" fill="#C4553B"/>
<path d="M35.9636 0.763184H26.8586C25.5665 6.4218 24.6463 11.1844 24.0981 15.0534C23.917 12.6045 23.1127 7.84189 21.6902 0.763184H12.5828L15.9519 11.9452C20.7918 14.0656 25.6414 16.1644 30.5054 18.2341L35.9636 0.763184Z" fill="#333333"/>
<path d="M19.5529 23.9V37.0237H28.7351V23.9L29.7664 20.5985C25.3274 18.4056 20.915 16.1595 16.5291 13.8603L19.5529 23.9Z" fill="#333333"/>
<path d="M53.5551 27.013V10.0807C53.5551 8.21378 53.6928 7.09075 53.9681 6.70916C54.2435 6.32757 54.6395 6.13919 55.1564 6.13919C55.7674 6.13919 56.1731 6.37346 56.3688 6.84441C56.5644 7.31535 56.6634 8.3925 56.6634 10.0807V26.745C56.6634 27.641 56.6465 28.3993 56.6127 29.0176C59.5591 30.1962 62.5104 31.3627 65.4641 32.5147C65.9036 31.6428 66.1862 30.7154 66.3021 29.7325C66.4833 28.2182 66.5726 25.6364 66.5726 21.9944V15.79C66.5726 12.0562 66.4784 9.44307 66.2901 7.95053C66.1017 6.45799 65.5124 5.07654 64.5246 3.80619C63.5368 2.53826 62.2302 1.58429 60.6049 0.951525C58.9795 0.31635 57.1488 -3.05176e-05 55.1081 -3.05176e-05C52.9586 -3.05176e-05 51.0748 0.335671 49.4567 1.00707C47.841 1.67847 46.5561 2.64211 45.607 3.89555C44.6579 5.149 44.0927 6.53527 43.9116 8.04955C43.7305 9.56624 43.6411 12.1456 43.6411 15.7876V21.992C43.6411 22.6079 43.6435 23.1899 43.6483 23.7454C46.945 25.1075 50.2489 26.4551 53.5576 27.7883C53.5551 27.5419 53.5527 27.2835 53.5527 27.0082L53.5551 27.013Z" fill="#333333"/>
<path d="M43.9261 29.8363C44.1145 31.3289 44.7038 32.7103 45.6916 33.9807C46.6793 35.251 47.9859 36.2026 49.6113 36.8353C51.2367 37.4705 53.0673 37.7869 55.1081 37.7869C57.2576 37.7869 59.1413 37.4512 60.7595 36.7798C61.4913 36.4755 62.1482 36.1084 62.7447 35.6857C56.3615 32.9905 50.0243 30.1865 43.7353 27.2787C43.7812 28.339 43.844 29.1915 43.9261 29.8363Z" fill="#333333"/>
<path d="M78.4936 17.8525C79.293 18.5553 80.9257 19.6807 83.3915 21.2337C85.8549 22.7721 87.4006 23.8686 88.0285 24.5255C88.6395 25.1824 88.9463 26.5783 88.9463 28.7133C88.9463 29.6842 88.7845 30.4159 88.4632 30.9086C88.142 31.4013 87.6518 31.6476 86.9924 31.6476C86.3331 31.6476 85.8742 31.4544 85.6158 31.0656C85.3574 30.6768 85.227 29.8049 85.227 28.4452V24.0328H76.0206V26.4068C76.0206 29.1238 76.3104 31.2226 76.8924 32.7006C77.472 34.1787 78.7013 35.3959 80.5779 36.3523C82.4544 37.3087 84.7174 37.7869 87.3692 37.7869C89.7867 37.7869 91.9048 37.3715 93.7258 36.5431C95.5468 35.7147 96.7737 34.6883 97.4112 33.4638C98.0464 32.2393 98.3652 30.3362 98.3652 27.7521C98.3652 24.1994 97.7928 21.6225 96.6457 20.0261C95.5009 18.4297 92.7211 16.3841 88.3087 13.8917C86.7702 13.0271 85.8356 12.2881 85.5071 11.6746C85.1618 11.0612 84.9903 10.1507 84.9903 8.94073C84.9903 7.99883 85.1425 7.29845 85.4492 6.83475C85.7559 6.37104 86.2051 6.13919 86.8041 6.13919C87.3523 6.13919 87.746 6.31067 87.9802 6.65361C88.2145 6.99656 88.3328 7.79596 88.3328 9.04941V11.7374H97.5392V10.3029C97.5392 7.42162 97.2446 5.37843 96.6553 4.17812C96.066 2.97539 94.8657 1.98036 93.0544 1.18821C91.2406 0.396048 89.0477 -3.05176e-05 86.4732 -3.05176e-05C84.1184 -3.05176e-05 82.1091 0.362237 80.4451 1.08677C78.781 1.81131 77.5759 2.81599 76.832 4.09842C76.0858 5.38326 75.7138 7.41437 75.7138 10.1893C75.7138 12.1166 75.9771 13.6985 76.5036 14.9375C77.0301 16.1764 77.6918 17.1473 78.4936 17.8501V17.8525Z" fill="#333333"/>
<path d="M121.584 85H130.53V59.8876C127.542 59.0061 124.56 58.1028 121.584 57.1778V85Z" fill="#333333"/>
<path d="M107.738 84.9999H116.684V55.6321C113.694 54.6782 110.714 53.7025 107.738 52.7026V84.9975V84.9999Z" fill="#333333"/>
<path d="M116.684 0.763184H107.738V47.9473C108.465 48.1936 109.192 48.44 109.919 48.6839C112.17 49.4471 114.426 50.2006 116.684 50.9469" fill="#333333"/>
<path d="M121.584 52.5505C124.56 53.5141 127.542 54.4609 130.53 55.3955V0.763184H121.584" fill="#333333"/>
<path d="M150.689 0.763184H140.777V37.0237H150.689V0.763184Z" fill="#333333"/>
<path d="M150.251 72.0549H146.839C146.986 70.2146 147.259 67.7584 147.653 64.6936C144.854 63.9498 142.059 63.1842 139.272 62.4041L136.121 84.9999H146.368L146.965 78.4815H150.51L151.041 84.9999H161.17L158.429 67.4614C155.446 66.7223 152.469 65.9592 149.498 65.1791C149.749 67.7125 150 70.0045 150.251 72.0549Z" fill="#333333"/>
<path d="M148.742 56.8228C148.863 58.2719 148.984 59.6654 149.104 61.0034C152.002 61.8487 154.905 62.6819 157.813 63.503L155.504 48.737H141.178L139.85 58.2598C142.622 59.0979 145.402 59.9214 148.184 60.7353C148.356 59.5036 148.539 58.1995 148.742 56.8204V56.8228Z" fill="#333333"/>
<path d="M169.123 85H179.035V72.224C175.726 71.514 172.422 70.7798 169.123 70.019V85Z" fill="#333333"/>
<path d="M179.035 48.7394H169.123V66.6306C172.425 67.5241 175.729 68.4057 179.035 69.2703V48.7394Z" fill="#333333"/>
<path d="M189.282 85H199.194V76.2283C195.885 75.6245 192.581 74.9942 189.282 74.3397V85Z" fill="#333333"/>
<path d="M202.208 76.7692V84.9999H211.412V78.3125C210.673 78.2014 209.965 78.0951 209.311 77.9961C206.942 77.6 204.572 77.1919 202.206 76.7716L202.208 76.7692Z" fill="#333333"/>
<path d="M199.194 68.6497C200.558 68.6497 201.404 68.8815 201.725 69.3428C202.046 69.8065 202.208 71.0068 202.208 72.9486V75.0811C204.652 75.6704 207.099 76.2549 209.543 76.8297C210.12 76.9601 210.75 77.1002 211.412 77.2499V75.4361C211.412 72.509 211.33 70.7218 211.166 70.0722C211.001 69.4225 210.581 68.71 209.905 67.9324C209.231 67.1571 207.912 66.5364 205.949 66.0727C208.115 65.8795 209.567 65.2975 210.306 64.3266C211.042 63.3557 211.412 61.4599 211.412 58.6366C211.412 55.5452 210.89 53.2944 209.847 51.8839C208.804 50.4735 207.454 49.5968 205.797 49.2515C204.14 48.9085 200.974 48.737 196.298 48.737H189.282V71.8956C192.586 72.7288 195.89 73.5451 199.194 74.3493V68.6472V68.6497ZM199.194 54.9415C200.339 54.9415 201.128 55.1202 201.561 55.48C201.993 55.8375 202.208 56.5934 202.208 57.743V59.7355C202.208 61.3343 201.983 62.2786 201.537 62.5684C201.09 62.8582 200.307 63.0055 199.194 63.0055V54.9415Z" fill="#333333"/>
</svg>
