<svg width="224" height="85" viewBox="0 0 224 85" fill="none" xmlns="http://www.w3.org/2000/svg">
<path d="M111.999 83.196C134.474 83.196 152.693 64.9764 152.693 42.5013C152.693 20.0263 134.474 1.80664 111.999 1.80664C89.5236 1.80664 71.304 20.0263 71.304 42.5013C71.304 64.9764 89.5236 83.196 111.999 83.196Z" fill="#C4553B"/>
<path d="M35.9636 0.763184H26.8586C25.5665 6.4218 24.6463 11.1844 24.0981 15.0534C23.917 12.6045 23.1127 7.84189 21.6902 0.763184H12.5828L15.9519 11.9452C20.7918 14.0656 25.6414 16.1644 30.5054 18.2341L35.9636 0.763184Z" fill="white"/>
<path d="M19.5529 23.9V37.0237H28.7351V23.9L29.7664 20.5985C25.3274 18.4056 20.915 16.1595 16.5291 13.8604L19.5529 23.9Z" fill="white"/>
<path d="M53.5551 27.0131V10.0807C53.5551 8.21381 53.6928 7.09078 53.9681 6.70919C54.2435 6.3276 54.6395 6.13922 55.1564 6.13922C55.7674 6.13922 56.1731 6.37349 56.3688 6.84444C56.5644 7.31538 56.6634 8.39253 56.6634 10.0807V26.745C56.6634 27.641 56.6465 28.3993 56.6127 29.0176C59.5591 30.1962 62.5104 31.3627 65.4641 32.5147C65.9036 31.6428 66.1862 30.7154 66.3021 29.7325C66.4833 28.2182 66.5726 25.6365 66.5726 21.9945V15.79C66.5726 12.0563 66.4784 9.4431 66.2901 7.95056C66.1017 6.45802 65.5124 5.07657 64.5246 3.80622C63.5368 2.53829 62.2302 1.58432 60.6049 0.951556C58.9795 0.31638 57.1488 0 55.1081 0C52.9586 0 51.0748 0.335701 49.4567 1.0071C47.841 1.67851 46.5561 2.64214 45.607 3.89558C44.6579 5.14903 44.0927 6.5353 43.9116 8.04958C43.7305 9.56627 43.6411 12.1456 43.6411 15.7876V21.992C43.6411 22.6079 43.6435 23.1899 43.6483 23.7454C46.945 25.1075 50.2489 26.4552 53.5576 27.7883C53.5551 27.542 53.5527 27.2836 53.5527 27.0082L53.5551 27.0131Z" fill="white"/>
<path d="M43.9261 29.8364C44.1145 31.329 44.7038 32.7104 45.6916 33.9808C46.6793 35.2511 47.9859 36.2027 49.6113 36.8354C51.2367 37.4706 53.0673 37.787 55.1081 37.787C57.2576 37.787 59.1413 37.4513 60.7595 36.7799C61.4913 36.4756 62.1482 36.1085 62.7447 35.6858C56.3615 32.9906 50.0243 30.1866 43.7353 27.2788C43.7812 28.339 43.844 29.1916 43.9261 29.8364Z" fill="white"/>
<path d="M78.4936 17.8525C79.293 18.5553 80.9257 19.6808 83.3915 21.2337C85.8549 22.7721 87.4006 23.8686 88.0285 24.5255C88.6395 25.1824 88.9463 26.5783 88.9463 28.7133C88.9463 29.6842 88.7845 30.416 88.4632 30.9086C88.142 31.4013 87.6518 31.6477 86.9924 31.6477C86.3331 31.6477 85.8742 31.4545 85.6158 31.0656C85.3574 30.6768 85.227 29.8049 85.227 28.4452V24.0328H76.0206V26.4069C76.0206 29.1239 76.3104 31.2226 76.8924 32.7007C77.472 34.1787 78.7013 35.3959 80.5779 36.3523C82.4544 37.3087 84.7174 37.7869 87.3692 37.7869C89.7867 37.7869 91.9048 37.3715 93.7258 36.5431C95.5468 35.7147 96.7737 34.6883 97.4112 33.4638C98.0464 32.2394 98.3652 30.3363 98.3652 27.7521C98.3652 24.1995 97.7928 21.6225 96.6457 20.0261C95.5009 18.4297 92.7211 16.3841 88.3087 13.8917C86.7702 13.0271 85.8356 12.2881 85.5071 11.6747C85.1618 11.0612 84.9903 10.1507 84.9903 8.94076C84.9903 7.99886 85.1425 7.29848 85.4492 6.83478C85.7559 6.37108 86.2051 6.13922 86.8041 6.13922C87.3523 6.13922 87.746 6.3107 87.9802 6.65364C88.2145 6.99659 88.3328 7.79599 88.3328 9.04944V11.7375H97.5392V10.3029C97.5392 7.42165 97.2446 5.37846 96.6553 4.17815C96.066 2.97542 94.8657 1.98039 93.0544 1.18824C91.2406 0.396079 89.0477 0 86.4732 0C84.1184 0 82.1091 0.362267 80.4451 1.0868C78.781 1.81134 77.5759 2.81602 76.832 4.09845C76.0858 5.38329 75.7138 7.4144 75.7138 10.1894C75.7138 12.1166 75.9771 13.6985 76.5036 14.9375C77.0301 16.1764 77.6918 17.1473 78.4936 17.8501V17.8525Z" fill="white"/>
<path d="M121.584 84.9999H130.53V59.8875C127.542 59.006 124.56 58.1027 121.584 57.1777V84.9999Z" fill="white"/>
<path d="M107.738 85H116.684V55.6322C113.694 54.6782 110.714 53.7025 107.738 52.7026V84.9976V85Z" fill="white"/>
<path d="M116.684 0.763184H107.738V47.9473C108.465 48.1936 109.192 48.44 109.919 48.6839C112.17 49.4471 114.426 50.2006 116.684 50.9469" fill="white"/>
<path d="M121.584 52.5505C124.56 53.5141 127.542 54.4609 130.53 55.3955V0.763184H121.584" fill="white"/>
<path d="M150.689 0.763184H140.777V37.0237H150.689V0.763184Z" fill="white"/>
<path d="M150.251 72.0551H146.839C146.986 70.2148 147.259 67.7586 147.653 64.6938C144.854 63.95 142.059 63.1844 139.272 62.4043L136.121 85.0001H146.368L146.965 78.4817H150.51L151.041 85.0001H161.17L158.429 67.4616C155.446 66.7225 152.469 65.9593 149.498 65.1793C149.749 67.7127 150 70.0047 150.251 72.0551Z" fill="white"/>
<path d="M148.742 56.8226C148.863 58.2717 148.984 59.6652 149.104 61.0032C152.002 61.8485 154.905 62.6817 157.813 63.5028L155.504 48.7368H141.178L139.85 58.2596C142.622 59.0977 145.402 59.9212 148.184 60.7351C148.356 59.5034 148.539 58.1992 148.742 56.8202V56.8226Z" fill="white"/>
<path d="M169.123 85H179.035V72.224C175.726 71.514 172.422 70.7798 169.123 70.019V85Z" fill="white"/>
<path d="M179.035 48.7393H169.123V66.6304C172.425 67.524 175.729 68.4055 179.035 69.2702V48.7393Z" fill="white"/>
<path d="M189.282 85.0002H199.194V76.2285C195.885 75.6247 192.581 74.9943 189.282 74.3398V85.0002Z" fill="white"/>
<path d="M202.208 76.769V84.9998H211.412V78.3123C210.673 78.2012 209.965 78.0949 209.311 77.9959C206.942 77.5998 204.572 77.1917 202.206 76.7715L202.208 76.769Z" fill="white"/>
<path d="M199.194 68.6494C200.558 68.6494 201.404 68.8813 201.725 69.3426C202.046 69.8063 202.208 71.0066 202.208 72.9484V75.0809C204.652 75.6702 207.099 76.2546 209.543 76.8294C210.12 76.9599 210.75 77.0999 211.412 77.2497V75.4359C211.412 72.5088 211.33 70.7216 211.166 70.072C211.001 69.4223 210.581 68.7098 209.905 67.9322C209.231 67.1569 207.912 66.5362 205.949 66.0725C208.115 65.8793 209.567 65.2973 210.306 64.3264C211.042 63.3555 211.412 61.4596 211.412 58.6364C211.412 55.545 210.89 53.2941 209.847 51.8837C208.804 50.4733 207.454 49.5966 205.797 49.2512C204.14 48.9083 200.974 48.7368 196.298 48.7368H189.282V71.8954C192.586 72.7286 195.89 73.5449 199.194 74.3491V68.647V68.6494ZM199.194 54.9412C200.339 54.9412 201.128 55.12 201.561 55.4798C201.993 55.8373 202.208 56.5932 202.208 57.7428V59.7353C202.208 61.3341 201.983 62.2784 201.537 62.5682C201.09 62.858 200.307 63.0053 199.194 63.0053V54.9412Z" fill="white"/>
</svg>
