<svg width="72" height="71" viewBox="0 0 72 71" fill="none" xmlns="http://www.w3.org/2000/svg">
<path d="M31.3658 2.63522C33.766 -0.283402 38.234 -0.283406 40.6342 2.63521L46.3835 9.62636C47.5032 10.9879 49.165 11.7882 50.9275 11.8147L59.9781 11.9507C63.7564 12.0075 66.5422 15.5008 65.7569 19.1971L63.8756 28.051C63.5092 29.7753 63.9196 31.5734 64.9979 32.968L70.5344 40.1288C72.8457 43.1183 71.8515 47.4744 68.472 49.1649L60.3768 53.2144C58.8002 54.003 57.6503 55.445 57.2322 57.1576L55.0856 65.9509C54.1895 69.6219 50.1639 71.5605 46.735 69.9723L38.5217 66.168C36.9222 65.4272 35.0778 65.4272 33.4783 66.168L25.265 69.9723C21.8361 71.5605 17.8105 69.6219 16.9144 65.9509L14.7678 57.1575C14.3497 55.445 13.1998 54.003 11.6232 53.2144L3.52802 49.1649C0.148492 47.4744 -0.845754 43.1183 1.4656 40.1289L7.00213 32.968C8.08036 31.5735 8.49079 29.7753 8.12441 28.051L6.24314 19.1971C5.45776 15.5008 8.24356 12.0075 12.0219 11.9507L21.0724 11.8147C22.835 11.7882 24.4968 10.9879 25.6165 9.62637L31.3658 2.63522Z" fill="#C3553B"/>
</svg>
